<mxfile host="Electron" agent="Mozilla/5.0 (Windows NT 10.0; Win64; x64) AppleWebKit/537.36 (KHTML, like Gecko) draw.io/24.7.5 Chrome/126.0.6478.183 Electron/31.3.0 Safari/537.36" version="24.7.5">
  <diagram name="페이지-1" id="Qx0bvRwCKjzU37vVv7oT">
    <mxGraphModel dx="-1056" dy="3464" grid="1" gridSize="10" guides="1" tooltips="1" connect="1" arrows="1" fold="1" page="0" pageScale="1" pageWidth="1920" pageHeight="1200" math="0" shadow="0">
      <root>
        <mxCell id="0" />
        <mxCell id="1" parent="0" />
        <mxCell id="sTbtkPJqOebTHk0jdgo4-4" value="" style="rounded=0;whiteSpace=wrap;html=1;container=0;" parent="1" vertex="1">
          <mxGeometry x="3280" y="-1683" width="1920" height="1040" as="geometry" />
        </mxCell>
        <mxCell id="sTbtkPJqOebTHk0jdgo4-72" value="&lt;font style=&quot;font-size: 29px;&quot;&gt;&lt;span&gt;건축물의 설계사항과 목표하는 자립률을 입력하면,&amp;nbsp;&lt;/span&gt;&lt;/font&gt;&lt;font style=&quot;background-color: initial; font-size: 29px;&quot;&gt;학습된 AI 모델이 ZEB(제로에너지건축물인증) 등급과 요구되는 태양광 발전&lt;/font&gt;&lt;span style=&quot;background-color: initial; font-size: 29px;&quot;&gt;설비 규모를 산출합니다.&lt;/span&gt;" style="text;html=1;align=left;verticalAlign=top;whiteSpace=wrap;rounded=0;fontSize=42;fontColor=#9999FF;fontStyle=0;container=0;" parent="1" vertex="1">
          <mxGeometry x="3320" y="-1634" width="1270" height="120" as="geometry" />
        </mxCell>
        <mxCell id="sTbtkPJqOebTHk0jdgo4-132" value="&lt;font color=&quot;#ccccff&quot; style=&quot;font-size: 22px;&quot;&gt;&lt;b&gt;&amp;nbsp;계 산 하 기&lt;/b&gt;&lt;/font&gt;" style="rounded=1;whiteSpace=wrap;html=1;strokeColor=none;container=0;movable=1;resizable=1;rotatable=1;deletable=1;editable=1;locked=0;connectable=1;strokeWidth=2;fillColor=#4E03B0;" parent="1" vertex="1">
          <mxGeometry x="3350" y="-870" width="1240" height="50" as="geometry" />
        </mxCell>
        <mxCell id="sTbtkPJqOebTHk0jdgo4-5" value="" style="rounded=0;whiteSpace=wrap;html=1;container=0;fillColor=#CCCCFF;" parent="1" vertex="1">
          <mxGeometry x="3280" y="-1843" width="1920" height="160" as="geometry" />
        </mxCell>
        <mxCell id="sTbtkPJqOebTHk0jdgo4-6" value="&lt;font style=&quot;font-size: 49px;&quot;&gt;ZEB PV-system &lt;/font&gt;&lt;font style=&quot;font-size: 42px;&quot;&gt;설치 용량 예측&lt;/font&gt;&lt;font style=&quot;font-size: 49px;&quot;&gt;_&lt;/font&gt;&lt;font style=&quot;font-size: 29px;&quot;&gt;비주거 ver.&lt;/font&gt;" style="text;html=1;align=left;verticalAlign=middle;whiteSpace=wrap;rounded=0;horizontal=1;fontFamily=Tahoma;fontColor=#4E03B0;container=0;" parent="1" vertex="1">
          <mxGeometry x="3440" y="-1778" width="1530" height="30" as="geometry" />
        </mxCell>
        <mxCell id="sTbtkPJqOebTHk0jdgo4-76" value="" style="rounded=1;whiteSpace=wrap;html=1;strokeColor=#9999FF;strokeWidth=2;container=0;movable=1;resizable=1;rotatable=1;deletable=1;editable=1;locked=0;connectable=1;" parent="1" vertex="1">
          <mxGeometry x="3350" y="-1419" width="360" height="50" as="geometry" />
        </mxCell>
        <mxCell id="sTbtkPJqOebTHk0jdgo4-77" value="&lt;font color=&quot;#4e03b0&quot;&gt;연면적 (㎡)&lt;/font&gt;" style="text;html=1;align=left;verticalAlign=middle;whiteSpace=wrap;rounded=0;fontSize=22;fontStyle=1;container=0;movable=1;resizable=1;rotatable=1;deletable=1;editable=1;locked=0;connectable=1;" parent="1" vertex="1">
          <mxGeometry x="3350" y="-1459" width="330" height="30" as="geometry" />
        </mxCell>
        <mxCell id="sTbtkPJqOebTHk0jdgo4-78" value="&lt;font color=&quot;#808080&quot; style=&quot;font-size: 22px;&quot;&gt;연면적을 입력해주세요.&lt;/font&gt;" style="text;html=1;align=left;verticalAlign=middle;whiteSpace=wrap;rounded=0;container=0;movable=1;resizable=1;rotatable=1;deletable=1;editable=1;locked=0;connectable=1;" parent="1" vertex="1">
          <mxGeometry x="3360" y="-1409" width="360" height="30" as="geometry" />
        </mxCell>
        <mxCell id="sTbtkPJqOebTHk0jdgo4-79" value="" style="rounded=1;whiteSpace=wrap;html=1;strokeColor=#9999FF;container=0;movable=1;resizable=1;rotatable=1;deletable=1;editable=1;locked=0;connectable=1;strokeWidth=2;" parent="1" vertex="1">
          <mxGeometry x="4230" y="-1419" width="360" height="50" as="geometry" />
        </mxCell>
        <mxCell id="sTbtkPJqOebTHk0jdgo4-80" value="&lt;font color=&quot;#4e03b0&quot;&gt;목표 자립률 (%)&lt;/font&gt;" style="text;html=1;align=left;verticalAlign=middle;whiteSpace=wrap;rounded=0;fontSize=22;fontStyle=1;container=0;movable=1;resizable=1;rotatable=1;deletable=1;editable=1;locked=0;connectable=1;" parent="1" vertex="1">
          <mxGeometry x="4230" y="-1459" width="330" height="30" as="geometry" />
        </mxCell>
        <mxCell id="sTbtkPJqOebTHk0jdgo4-81" value="&lt;font color=&quot;#808080&quot; style=&quot;font-size: 22px;&quot;&gt;목표하는 자립률을 입력해주세요.&lt;/font&gt;" style="text;html=1;align=left;verticalAlign=middle;whiteSpace=wrap;rounded=0;container=0;movable=1;resizable=1;rotatable=1;deletable=1;editable=1;locked=0;connectable=1;" parent="1" vertex="1">
          <mxGeometry x="4240" y="-1409" width="360" height="30" as="geometry" />
        </mxCell>
        <mxCell id="sTbtkPJqOebTHk0jdgo4-82" value="" style="rounded=1;whiteSpace=wrap;html=1;strokeColor=#9999FF;container=0;movable=1;resizable=1;rotatable=1;deletable=1;editable=1;locked=0;connectable=1;strokeWidth=2;" parent="1" vertex="1">
          <mxGeometry x="3790" y="-1419" width="360" height="50" as="geometry" />
        </mxCell>
        <mxCell id="sTbtkPJqOebTHk0jdgo4-83" value="&lt;font color=&quot;#4e03b0&quot;&gt;창면적비 (%)&lt;/font&gt;" style="text;html=1;align=left;verticalAlign=middle;whiteSpace=wrap;rounded=0;fontSize=22;fontStyle=1;container=0;movable=1;resizable=1;rotatable=1;deletable=1;editable=1;locked=0;connectable=1;" parent="1" vertex="1">
          <mxGeometry x="3790" y="-1459" width="330" height="30" as="geometry" />
        </mxCell>
        <mxCell id="sTbtkPJqOebTHk0jdgo4-84" value="&lt;font color=&quot;#808080&quot; style=&quot;font-size: 22px;&quot;&gt;창면적비를 입력해주세요.&lt;/font&gt;" style="text;html=1;align=left;verticalAlign=middle;whiteSpace=wrap;rounded=0;container=0;movable=1;resizable=1;rotatable=1;deletable=1;editable=1;locked=0;connectable=1;" parent="1" vertex="1">
          <mxGeometry x="3800" y="-1409" width="360" height="30" as="geometry" />
        </mxCell>
        <mxCell id="sTbtkPJqOebTHk0jdgo4-85" value="" style="rounded=1;whiteSpace=wrap;html=1;strokeColor=#9999FF;container=0;movable=1;resizable=1;rotatable=1;deletable=1;editable=1;locked=0;connectable=1;strokeWidth=2;" parent="1" vertex="1">
          <mxGeometry x="3790" y="-1279" width="360" height="50" as="geometry" />
        </mxCell>
        <mxCell id="sTbtkPJqOebTHk0jdgo4-86" value="&lt;font color=&quot;#4e03b0&quot;&gt;열관류율_지붕 (W/㎡·K)&lt;/font&gt;" style="text;html=1;align=left;verticalAlign=middle;whiteSpace=wrap;rounded=0;fontSize=22;fontStyle=1;container=0;movable=1;resizable=1;rotatable=1;deletable=1;editable=1;locked=0;connectable=1;" parent="1" vertex="1">
          <mxGeometry x="3790" y="-1319" width="330" height="30" as="geometry" />
        </mxCell>
        <mxCell id="sTbtkPJqOebTHk0jdgo4-87" value="&lt;font color=&quot;#808080&quot; style=&quot;font-size: 22px;&quot;&gt;지붕의 열관류율을 입력해주세요.&lt;/font&gt;" style="text;html=1;align=left;verticalAlign=middle;whiteSpace=wrap;rounded=0;container=0;movable=1;resizable=1;rotatable=1;deletable=1;editable=1;locked=0;connectable=1;" parent="1" vertex="1">
          <mxGeometry x="3800" y="-1269" width="360" height="30" as="geometry" />
        </mxCell>
        <mxCell id="sTbtkPJqOebTHk0jdgo4-88" value="" style="rounded=1;whiteSpace=wrap;html=1;strokeColor=#9999FF;container=0;movable=1;resizable=1;rotatable=1;deletable=1;editable=1;locked=0;connectable=1;strokeWidth=2;" parent="1" vertex="1">
          <mxGeometry x="3790" y="-1139" width="360" height="50" as="geometry" />
        </mxCell>
        <mxCell id="sTbtkPJqOebTHk0jdgo4-89" value="&lt;font color=&quot;#4e03b0&quot;&gt;열관류율_벽체 (W/㎡·K)&lt;/font&gt;" style="text;html=1;align=left;verticalAlign=middle;whiteSpace=wrap;rounded=0;fontSize=22;fontStyle=1;container=0;movable=1;resizable=1;rotatable=1;deletable=1;editable=1;locked=0;connectable=1;" parent="1" vertex="1">
          <mxGeometry x="3790" y="-1179" width="330" height="30" as="geometry" />
        </mxCell>
        <mxCell id="sTbtkPJqOebTHk0jdgo4-90" value="&lt;font color=&quot;#808080&quot; style=&quot;font-size: 22px;&quot;&gt;벽체의 열관류율을 입력해주세요.&lt;/font&gt;" style="text;html=1;align=left;verticalAlign=middle;whiteSpace=wrap;rounded=0;container=0;movable=1;resizable=1;rotatable=1;deletable=1;editable=1;locked=0;connectable=1;" parent="1" vertex="1">
          <mxGeometry x="3800" y="-1129" width="360" height="30" as="geometry" />
        </mxCell>
        <mxCell id="sTbtkPJqOebTHk0jdgo4-91" value="" style="rounded=1;whiteSpace=wrap;html=1;strokeColor=#9999FF;container=0;movable=1;resizable=1;rotatable=1;deletable=1;editable=1;locked=0;connectable=1;strokeWidth=2;" parent="1" vertex="1">
          <mxGeometry x="3790" y="-999" width="360" height="50" as="geometry" />
        </mxCell>
        <mxCell id="sTbtkPJqOebTHk0jdgo4-92" value="&lt;font color=&quot;#4e03b0&quot;&gt;열관류율_바닥 (W/㎡·K)&lt;/font&gt;" style="text;html=1;align=left;verticalAlign=middle;whiteSpace=wrap;rounded=0;fontSize=22;fontStyle=1;container=0;movable=1;resizable=1;rotatable=1;deletable=1;editable=1;locked=0;connectable=1;" parent="1" vertex="1">
          <mxGeometry x="3790" y="-1039" width="330" height="30" as="geometry" />
        </mxCell>
        <mxCell id="sTbtkPJqOebTHk0jdgo4-93" value="&lt;font color=&quot;#808080&quot; style=&quot;font-size: 22px;&quot;&gt;바닥의 열관류율을 입력해주세요.&lt;/font&gt;" style="text;html=1;align=left;verticalAlign=middle;whiteSpace=wrap;rounded=0;container=0;movable=1;resizable=1;rotatable=1;deletable=1;editable=1;locked=0;connectable=1;" parent="1" vertex="1">
          <mxGeometry x="3800" y="-989" width="360" height="30" as="geometry" />
        </mxCell>
        <mxCell id="sTbtkPJqOebTHk0jdgo4-98" value="" style="rounded=1;whiteSpace=wrap;html=1;strokeColor=#9999FF;container=0;movable=1;resizable=1;rotatable=1;deletable=1;editable=1;locked=0;connectable=1;strokeWidth=2;fillColor=#E6E3FF;" parent="1" vertex="1">
          <mxGeometry x="4670" y="-1419" width="360" height="50" as="geometry" />
        </mxCell>
        <mxCell id="sTbtkPJqOebTHk0jdgo4-99" value="&lt;font color=&quot;#4e03b0&quot;&gt;제로에너지건축물(ZEB)인증 등급&lt;/font&gt;" style="text;html=1;align=left;verticalAlign=middle;whiteSpace=wrap;rounded=0;fontSize=22;fontStyle=1;container=0;movable=1;resizable=1;rotatable=1;deletable=1;editable=1;locked=0;connectable=1;" parent="1" vertex="1">
          <mxGeometry x="4670" y="-1459" width="360" height="30" as="geometry" />
        </mxCell>
        <mxCell id="sTbtkPJqOebTHk0jdgo4-100" value="&lt;font color=&quot;#808080&quot;&gt;&lt;span style=&quot;font-size: 22px;&quot;&gt;계산 버튼을 눌러주세요.&lt;/span&gt;&lt;/font&gt;" style="text;html=1;align=left;verticalAlign=middle;whiteSpace=wrap;rounded=0;container=0;movable=1;resizable=1;rotatable=1;deletable=1;editable=1;locked=0;connectable=1;" parent="1" vertex="1">
          <mxGeometry x="4680" y="-1409" width="360" height="30" as="geometry" />
        </mxCell>
        <mxCell id="sTbtkPJqOebTHk0jdgo4-135" value="" style="rounded=1;whiteSpace=wrap;html=1;strokeColor=#9999FF;container=0;movable=1;resizable=1;rotatable=1;deletable=1;editable=1;locked=0;connectable=1;strokeWidth=2;fillColor=#E6E3FF;" parent="1" vertex="1">
          <mxGeometry x="4670" y="-1279" width="360" height="50" as="geometry" />
        </mxCell>
        <mxCell id="sTbtkPJqOebTHk0jdgo4-136" value="&lt;font color=&quot;#4e03b0&quot;&gt;PV-system 예측 규모 (kW)&lt;/font&gt;" style="text;html=1;align=left;verticalAlign=middle;whiteSpace=wrap;rounded=0;fontSize=22;fontStyle=1;container=0;movable=1;resizable=1;rotatable=1;deletable=1;editable=1;locked=0;connectable=1;" parent="1" vertex="1">
          <mxGeometry x="4670" y="-1319" width="360" height="30" as="geometry" />
        </mxCell>
        <mxCell id="sTbtkPJqOebTHk0jdgo4-137" value="&lt;font color=&quot;#808080&quot;&gt;&lt;span style=&quot;font-size: 22px;&quot;&gt;계산 버튼을 눌러주세요.&lt;/span&gt;&lt;/font&gt;" style="text;html=1;align=left;verticalAlign=middle;whiteSpace=wrap;rounded=0;container=0;movable=1;resizable=1;rotatable=1;deletable=1;editable=1;locked=0;connectable=1;" parent="1" vertex="1">
          <mxGeometry x="4680" y="-1269" width="360" height="30" as="geometry" />
        </mxCell>
      </root>
    </mxGraphModel>
  </diagram>
</mxfile>
